<svg xmlns="http://www.w3.org/2000/svg" xmlns:xlink="http://www.w3.org/1999/xlink" contentStyleType="text/css" data-diagram-type="CLASS" height="374px" preserveAspectRatio="none" style="width:518px;height:374px;background:#FFFFFF;" version="1.1" viewBox="0 0 518 374" width="518px" zoomAndPan="magnify"><defs/><g><!--class Plantacao--><g class="entity" data-entity="Plantacao" data-source-line="1" data-uid="ent0002" id="entity_Plantacao"><rect fill="#F1F1F1" height="145.7813" rx="2.5" ry="2.5" style="stroke:#181818;stroke-width:0.5;" width="218.582" x="9" y="7"/><ellipse cx="79.6938" cy="23" fill="#ADD1B2" rx="11" ry="11" style="stroke:#181818;stroke-width:1;"/><path d="M83.8032,29 L76.0845,29 L76.0845,16.6094 L83.8032,16.6094 L83.8032,18.7656 L78.5376,18.7656 L78.5376,21.4375 L83.3032,21.4375 L83.3032,23.5938 L78.5376,23.5938 L78.5376,26.8438 L83.8032,26.8438 L83.8032,29 Z " fill="#000000"/><text fill="#000000" font-family="sans-serif" font-size="14" lengthAdjust="spacing" textLength="68.6943" x="100.1938" y="27.8467">Plantacao</text><line style="stroke:#181818;stroke-width:0.5;" x1="10" x2="226.582" y1="39" y2="39"/><polygon fill="none" points="20,47.6484,24,51.6484,20,55.6484,16,51.6484" style="stroke:#B38D22;stroke-width:1;"/><text fill="#000000" font-family="sans-serif" font-size="14" font-weight="bold" lengthAdjust="spacing" textLength="99.5586" x="29" y="55.9951">id_plantacao</text><text fill="#000000" font-family="sans-serif" font-size="14" lengthAdjust="spacing" textLength="70.5879" x="128.5586" y="55.9951">: INTEGER</text><line style="stroke:#181818;stroke-width:1;" x1="10" x2="226.582" y1="63.2969" y2="63.2969"/><ellipse cx="20" cy="76.9453" fill="#000000" rx="3" ry="3" style="stroke:#000000;stroke-width:1;"/><text fill="#000000" font-family="sans-serif" font-size="14" lengthAdjust="spacing" textLength="155.8662" x="29" y="80.292">data_inicio: DATETIME</text><ellipse cx="20" cy="93.2422" fill="#000000" rx="3" ry="3" style="stroke:#000000;stroke-width:1;"/><text fill="#000000" font-family="sans-serif" font-size="14" lengthAdjust="spacing" textLength="141.5176" x="29" y="96.5889">data_fim: DATETIME</text><ellipse cx="20" cy="109.5391" fill="#000000" rx="3" ry="3" style="stroke:#000000;stroke-width:1;"/><text fill="#000000" font-family="sans-serif" font-size="14" lengthAdjust="spacing" textLength="154.9912" x="29" y="112.8857">nome: VARCHAR(100)</text><ellipse cx="20" cy="125.8359" fill="#000000" rx="3" ry="3" style="stroke:#000000;stroke-width:1;"/><text fill="#000000" font-family="sans-serif" font-size="14" lengthAdjust="spacing" textLength="155.5518" x="29" y="129.1826">cultura: VARCHAR(50)</text><ellipse cx="20" cy="142.1328" fill="#000000" rx="3" ry="3" style="stroke:#000000;stroke-width:1;"/><text fill="#000000" font-family="sans-serif" font-size="14" lengthAdjust="spacing" textLength="192.582" x="29" y="145.4795">localizacao: VARCHAR(200)</text></g><!--class Sensor--><g class="entity" data-entity="Sensor" data-source-line="11" data-uid="ent0003" id="entity_Sensor"><rect fill="#F1F1F1" height="113.1875" rx="2.5" ry="2.5" style="stroke:#181818;stroke-width:0.5;" width="248.4893" x="263.05" y="23.3"/><ellipse cx="359.0505" cy="39.3" fill="#ADD1B2" rx="11" ry="11" style="stroke:#181818;stroke-width:1;"/><path d="M363.1599,45.3 L355.4411,45.3 L355.4411,32.9094 L363.1599,32.9094 L363.1599,35.0656 L357.8942,35.0656 L357.8942,37.7375 L362.6599,37.7375 L362.6599,39.8937 L357.8942,39.8937 L357.8942,43.1437 L363.1599,43.1437 L363.1599,45.3 Z " fill="#000000"/><text fill="#000000" font-family="sans-serif" font-size="14" lengthAdjust="spacing" textLength="47.9883" x="379.5505" y="44.1467">Sensor</text><line style="stroke:#181818;stroke-width:0.5;" x1="264.05" x2="510.5393" y1="55.3" y2="55.3"/><polygon fill="none" points="274.05,63.9484,278.05,67.9484,274.05,71.9484,270.05,67.9484" style="stroke:#B38D22;stroke-width:1;"/><text fill="#000000" font-family="sans-serif" font-size="14" font-weight="bold" lengthAdjust="spacing" textLength="74.4707" x="283.05" y="72.2951">id_sensor</text><text fill="#000000" font-family="sans-serif" font-size="14" lengthAdjust="spacing" textLength="70.5879" x="357.5207" y="72.2951">: INTEGER</text><line style="stroke:#181818;stroke-width:1;" x1="264.05" x2="510.5393" y1="79.5969" y2="79.5969"/><ellipse cx="274.05" cy="93.2453" fill="#000000" rx="3" ry="3" style="stroke:#000000;stroke-width:1;"/><text fill="#000000" font-family="sans-serif" font-size="14" lengthAdjust="spacing" textLength="186.6211" x="283.05" y="96.592">tipo_sensor: VARCHAR(50)</text><ellipse cx="274.05" cy="109.5422" fill="#000000" rx="3" ry="3" style="stroke:#000000;stroke-width:1;"/><text fill="#000000" font-family="sans-serif" font-size="14" lengthAdjust="spacing" textLength="158.5527" x="283.05" y="112.8889">modelo: VARCHAR(50)</text><ellipse cx="274.05" cy="125.8391" fill="#000000" rx="3" ry="3" style="stroke:#000000;stroke-width:1;"/><text fill="#000000" font-family="sans-serif" font-size="14" lengthAdjust="spacing" textLength="222.4893" x="283.05" y="129.1857">unidade_medida: VARCHAR(10)</text></g><!--class Leitura--><g class="entity" data-entity="Leitura" data-source-line="19" data-uid="ent0004" id="entity_Leitura"><rect fill="#F1F1F1" height="137.4844" rx="2.5" ry="2.5" style="stroke:#181818;stroke-width:0.5;" width="218.1104" x="270.24" y="229.79"/><ellipse cx="323.051" cy="245.79" fill="#ADD1B2" rx="11" ry="11" style="stroke:#181818;stroke-width:1;"/><path d="M327.1604,251.79 L319.4417,251.79 L319.4417,239.3994 L327.1604,239.3994 L327.1604,241.5556 L321.8948,241.5556 L321.8948,244.2275 L326.6604,244.2275 L326.6604,246.3838 L321.8948,246.3838 L321.8948,249.6338 L327.1604,249.6338 L327.1604,251.79 Z " fill="#000000"/><text fill="#000000" font-family="sans-serif" font-size="14" lengthAdjust="spacing" textLength="103.9883" x="343.551" y="250.6367">Leitura_Sensor</text><line style="stroke:#181818;stroke-width:0.5;" x1="271.24" x2="487.3504" y1="261.79" y2="261.79"/><polygon fill="none" points="281.24,270.4384,285.24,274.4384,281.24,278.4384,277.24,274.4384" style="stroke:#B38D22;stroke-width:1;"/><text fill="#000000" font-family="sans-serif" font-size="14" font-weight="bold" lengthAdjust="spacing" textLength="73.9238" x="290.24" y="278.7851">id_leitura</text><text fill="#000000" font-family="sans-serif" font-size="14" lengthAdjust="spacing" textLength="70.5879" x="364.1638" y="278.7851">: INTEGER</text><line style="stroke:#181818;stroke-width:1;" x1="271.24" x2="487.3504" y1="286.0869" y2="286.0869"/><polygon fill="#FFFF44" points="281.24,294.7353,285.24,298.7353,281.24,302.7353,277.24,298.7353" style="stroke:#B38D22;stroke-width:1;"/><text fill="#000000" font-family="sans-serif" font-size="14" lengthAdjust="spacing" textLength="169.3672" x="290.24" y="303.082">id_sensor: INTEGER (FK)</text><polygon fill="#FFFF44" points="281.24,311.0322,285.24,315.0322,281.24,319.0322,277.24,315.0322" style="stroke:#B38D22;stroke-width:1;"/><text fill="#000000" font-family="sans-serif" font-size="14" lengthAdjust="spacing" textLength="192.1104" x="290.24" y="319.3789">id_plantacao: INTEGER (FK)</text><line style="stroke:#181818;stroke-width:1;" x1="271.24" x2="487.3504" y1="326.6806" y2="326.6806"/><ellipse cx="281.24" cy="340.3291" fill="#000000" rx="3" ry="3" style="stroke:#000000;stroke-width:1;"/><text fill="#000000" font-family="sans-serif" font-size="14" lengthAdjust="spacing" textLength="89.2432" x="290.24" y="343.6757">valor: FLOAT</text><ellipse cx="281.24" cy="356.6259" fill="#000000" rx="3" ry="3" style="stroke:#000000;stroke-width:1;"/><text fill="#000000" font-family="sans-serif" font-size="14" lengthAdjust="spacing" textLength="150.835" x="290.24" y="359.9726">data_hora: DATETIME</text></g><!--class Aplicacao--><g class="entity" data-entity="Aplicacao" data-source-line="29" data-uid="ent0005" id="entity_Aplicacao"><rect fill="#F1F1F1" height="137.4844" rx="2.5" ry="2.5" style="stroke:#181818;stroke-width:0.5;" width="218.1104" x="9.24" y="229.79"/><ellipse cx="58.9065" cy="245.79" fill="#ADD1B2" rx="11" ry="11" style="stroke:#181818;stroke-width:1;"/><path d="M63.0159,251.79 L55.2971,251.79 L55.2971,239.3994 L63.0159,239.3994 L63.0159,241.5556 L57.7503,241.5556 L57.7503,244.2275 L62.5159,244.2275 L62.5159,246.3838 L57.7503,246.3838 L57.7503,249.6338 L63.0159,249.6338 L63.0159,251.79 Z " fill="#000000"/><text fill="#000000" font-family="sans-serif" font-size="14" lengthAdjust="spacing" textLength="110.2773" x="79.4065" y="250.6367">Aplicacao_Agua</text><line style="stroke:#181818;stroke-width:0.5;" x1="10.24" x2="226.3504" y1="261.79" y2="261.79"/><polygon fill="none" points="20.24,270.4384,24.24,274.4384,20.24,278.4384,16.24,274.4384" style="stroke:#B38D22;stroke-width:1;"/><text fill="#000000" font-family="sans-serif" font-size="14" font-weight="bold" lengthAdjust="spacing" textLength="95.9971" x="29.24" y="278.7851">id_aplicacao</text><text fill="#000000" font-family="sans-serif" font-size="14" lengthAdjust="spacing" textLength="70.5879" x="125.2371" y="278.7851">: INTEGER</text><line style="stroke:#181818;stroke-width:1;" x1="10.24" x2="226.3504" y1="286.0869" y2="286.0869"/><polygon fill="#FFFF44" points="20.24,294.7353,24.24,298.7353,20.24,302.7353,16.24,298.7353" style="stroke:#B38D22;stroke-width:1;"/><text fill="#000000" font-family="sans-serif" font-size="14" lengthAdjust="spacing" textLength="192.1104" x="29.24" y="303.082">id_plantacao: INTEGER (FK)</text><line style="stroke:#181818;stroke-width:1;" x1="10.24" x2="226.3504" y1="310.3837" y2="310.3837"/><ellipse cx="20.24" cy="324.0322" fill="#000000" rx="3" ry="3" style="stroke:#000000;stroke-width:1;"/><text fill="#000000" font-family="sans-serif" font-size="14" lengthAdjust="spacing" textLength="155.8662" x="29.24" y="327.3789">data_inicio: DATETIME</text><ellipse cx="20.24" cy="340.3291" fill="#000000" rx="3" ry="3" style="stroke:#000000;stroke-width:1;"/><text fill="#000000" font-family="sans-serif" font-size="14" lengthAdjust="spacing" textLength="141.5176" x="29.24" y="343.6757">data_fim: DATETIME</text><ellipse cx="20.24" cy="356.6259" fill="#000000" rx="3" ry="3" style="stroke:#000000;stroke-width:1;"/><text fill="#000000" font-family="sans-serif" font-size="14" lengthAdjust="spacing" textLength="192.0283" x="29.24" y="359.9726">quantidade_litros: INTEGER</text></g><!--link Plantacao to Leitura--><g class="link" data-entity-1="Plantacao" data-entity-2="Leitura" data-source-line="40" data-uid="lnk6" id="link_Plantacao_Leitura"><path codeLine="40" d="M211.3556,158.1396 C241.0156,182.7596 254.0584,193.5851 283.3284,217.8751" fill="none" id="Plantacao-Leitura" style="stroke:#181818;stroke-width:1;"/><line style="stroke:#181818;stroke-width:1;" x1="205.723" x2="210.8326" y1="158.6626" y2="152.507"/><line style="stroke:#181818;stroke-width:1;" x1="208.0314" x2="213.141" y1="160.5787" y2="154.4231"/><line style="stroke:#181818;stroke-width:1;" x1="211.3556" x2="205.2" y1="158.1396" y2="153.03"/><line style="stroke:#181818;stroke-width:1;" x1="291.0237" x2="301.0116" y1="224.2612" y2="224.7528"/><line style="stroke:#181818;stroke-width:1;" x1="291.0237" x2="293.3484" y1="224.2612" y2="233.9872"/><line style="stroke:#181818;stroke-width:1;" x1="291.0237" x2="297.18" y1="224.2612" y2="229.37"/><ellipse cx="286.4065" cy="220.4295" fill="none" rx="4" ry="4" style="stroke:#181818;stroke-width:1;"/><text fill="#000000" font-family="sans-serif" font-size="13" lengthAdjust="spacing" textLength="43.3228" x="258.29" y="195.8569">realiza</text></g><!--link Sensor to Leitura--><g class="link" data-entity-1="Sensor" data-entity-2="Leitura" data-source-line="41" data-uid="lnk7" id="link_Sensor_Leitura"><path codeLine="41" d="M384.9252,144.9646 C383.8852,173.1646 383.5758,181.6123 382.4758,211.3323" fill="none" id="Sensor-Leitura" style="stroke:#181818;stroke-width:1;"/><line style="stroke:#181818;stroke-width:1;" x1="381.0753" x2="389.0699" y1="140.8199" y2="141.1147"/><line style="stroke:#181818;stroke-width:1;" x1="380.9647" x2="388.9593" y1="143.8178" y2="144.1127"/><line style="stroke:#181818;stroke-width:1;" x1="384.9252" x2="385.22" y1="144.9646" y2="136.97"/><line style="stroke:#181818;stroke-width:1;" x1="382.1059" x2="387.8059" y1="221.3255" y2="229.5419"/><line style="stroke:#181818;stroke-width:1;" x1="382.1059" x2="375.8141" y1="221.3255" y2="229.0981"/><line style="stroke:#181818;stroke-width:1;" x1="382.1059" x2="381.81" y1="221.3255" y2="229.32"/><ellipse cx="382.3278" cy="215.3296" fill="none" rx="4" ry="4" style="stroke:#181818;stroke-width:1;"/><text fill="#000000" font-family="sans-serif" font-size="13" lengthAdjust="spacing" textLength="29.561" x="384.29" y="195.8569">gera</text></g><!--link Plantacao to Aplicacao--><g class="link" data-entity-1="Plantacao" data-entity-2="Aplicacao" data-source-line="42" data-uid="lnk8" id="link_Plantacao_Aplicacao"><path codeLine="42" d="M118.29,161.03 C118.29,185.65 118.29,187.08 118.29,211.37" fill="none" id="Plantacao-Aplicacao" style="stroke:#181818;stroke-width:1;"/><line style="stroke:#181818;stroke-width:1;" x1="114.29" x2="122.29" y1="157.03" y2="157.03"/><line style="stroke:#181818;stroke-width:1;" x1="114.29" x2="122.29" y1="160.03" y2="160.03"/><line style="stroke:#181818;stroke-width:1;" x1="118.29" x2="118.29" y1="161.03" y2="153.03"/><line style="stroke:#181818;stroke-width:1;" x1="118.29" x2="124.29" y1="221.37" y2="229.37"/><line style="stroke:#181818;stroke-width:1;" x1="118.29" x2="112.29" y1="221.37" y2="229.37"/><line style="stroke:#181818;stroke-width:1;" x1="118.29" x2="118.29" y1="221.37" y2="229.37"/><ellipse cx="118.29" cy="215.37" fill="none" rx="4" ry="4" style="stroke:#181818;stroke-width:1;"/><text fill="#000000" font-family="sans-serif" font-size="13" lengthAdjust="spacing" textLength="44.7383" x="119.29" y="195.8569">recebe</text></g><!--SRC=[bP9TQuCm58Rl_HMXlLWxa7M3tKWfXCvkCck7bTxAKRCk48tJEDZQ_VSPjJ75Zh4RYU-RdFES3v89AZxHw8L19Y06Fa9G8lM73WP2utcqe4cOdyJvJRImaEC5zgFjrxvfrf_h10I4DACnvHPwm84TE6jR6QyqFLSpdX8BxR2_VCB-v7OscqerhfYe2kYD-rPdF0P6lsJsthkJZxuDWtGrR4bMyg8fe3tgz6MZN4ONDEVTXK7cb2U4yO5SPJI1X8GfIUg3NiWPaakeh2VKq3f9PsEjT15khDYLXIQhvsbdgQ4CtBQq3s3ovShTu40DuutB5gjfQBmuPpIMuKAyhw3XLP9E32VnL-Q_mFwvBkzL7QvjEQEYu6MVjCQ_GhxjugMpyV3QzeBDrkWt-7WqJNvGRRTGGPfLCheT6VXxKi3mVTy66I4c4Va1]--></g></svg>